<svg xmlns="http://www.w3.org/2000/svg"><symbol id="mecha-stilts" viewBox="0 0 256 256"><path d="M71.7 147.5h56.5v23.33H71.7zm56.5-20V85l-30.3 42.5h30.3zm4.2-46.9v46.9h57.9a62.4 62.4 0 0 0-57.9-46.9zm0 66.9h9.4v23.33h-9.4zm-6.3-66.7c-26.9 1.7-49.4 21.3-55.9 46.7h22.5z"/><path d="M130.3-.3l-110.7 64v128l110.7 64 110.6-64v-128zm90.4 147.8H193v25.4a1.9 1.9 0 0 1-2.1 2.1H69.6a1.9 1.9 0 0 1-2.1-2.1v-25.4H39.8a2.3 2.3 0 0 1-2.1-2.1 2.2 2.2 0 0 1 2.1-2.1h15.7v-13.7a2 2 0 0 1 2.1-2.1h8.2A66.7 66.7 0 0 1 130 76.4a.7.7 0 0 1 .9 0c31.1.2 56.9 22.1 63.8 51.1h8.2a2 2 0 0 1 2.1 2.1v13.7h15.7a2.2 2.2 0 0 1 2.1 2.1 2.3 2.3 0 0 1-2.1 2.1z"/><path d="M59.7 131.7h141v11.56h-141zm86.3 15.8h42.8v23.33H146z"/></symbol><symbol id="space-bubbles" viewBox="0 0 256 256"><path d="M97.1 150.1H83.3l-18.5 21.8 2.9 4.2 35.5-18.7-6.1-7.3zm-25.6-15.2h114.8v10.93H71.5zm100.3-4.2a50.1 50.1 0 0 0 2.6-16 45.5 45.5 0 0 0-90.9 0c0 5.5.4 11.2 2.5 16zm-85.6 40.6h28.5l-8.6-10.5-19.9 10.5zm72.2-21.2l-6.3 7.3 35.7 18.7 2.9-4-18.4-22h-13.9z"/><path d="M127.8.2l-110.7 64v128l110.7 64 110.6-64v-128zm67.1 173l-4.8 6.9a2.2 2.2 0 0 1-2.7.7l-10.1-5.3H78l-10.1 5.3a2.2 2.2 0 0 1-2.7-.7l-4.8-6.9a2.2 2.2 0 0 1 .2-2.5L78 150.1h-8.6a2.1 2.1 0 0 1-2.1-2.1v-15.2a2.1 2.1 0 0 1 2.1-2.1h12.2a57.3 57.3 0 0 1-2.3-16A49.8 49.8 0 0 1 129 65.1c27.1 0 49.6 22.5 49.6 49.6a50.9 50.9 0 0 1-2.4 16h12.2a2 2 0 0 1 2.1 2.1V148a2 2 0 0 1-2.1 2.1h-10.7l17.2 20.6a2.1 2.1 0 0 1 0 2.5z"/><path d="M140.8 171.3h28.5l-19.9-10.5-8.6 10.5zm-38.2-21.2l17.6 21.2h15.1l17.6-21.2h-50.3z"/></symbol><symbol id="super-domes" viewBox="0 0 256 256"><path d="M95.9 158h21v13.24h-21zm25.1 0h13.4v13.24H121zm17.7 0h21v13.24h-21zm-10.9-87.6c-24.6 0-45.2 14.9-46.2 42h92.3c-1-27.1-21.6-42-46.1-42zM78.2 158h13.4v13.24H78.2zm-12.6-4.2h124.3v-37.2H65.6zm61.1-14.3h51.2a2.2 2.2 0 0 1 0 4.3h-51.2a2.2 2.2 0 0 1 0-4.3z"/><path d="M127.8.2l-110.7 64v128l110.7 64 110.6-64v-128zm66.3 155.7a2 2 0 0 1-2.1 2.1h-10.5v13.3H192a2.3 2.3 0 0 1 2.1 2.1 2.3 2.3 0 0 1-2.1 2.1H63.5a2.3 2.3 0 0 1-2.1-2.1 2.3 2.3 0 0 1 2.1-2.1H74V158H63.5a2 2 0 0 1-2.1-2.1v-41.4a2.1 2.1 0 0 1 2.1-2.1h13.9c1-29.8 23.3-46.2 50.4-46.2s49.3 16.4 50.3 46.2H192a2.1 2.1 0 0 1 2.1 2.1z"/><path d="M163.9 158h13.4v13.24h-13.4z"/></symbol></svg>