<svg xmlns="http://www.w3.org/2000/svg" width="256" height="256" viewBox="0 0 256 256"><path d="M71.7 147.5h56.5v23.33H71.7zm56.5-20V85l-30.3 42.5h30.3zm4.2-46.9v46.9h57.9a62.4 62.4 0 0 0-57.9-46.9zm0 66.9h9.4v23.33h-9.4zm-6.3-66.7c-26.9 1.7-49.4 21.3-55.9 46.7h22.5z"/><path d="M130.3-.3l-110.7 64v128l110.7 64 110.6-64v-128zm90.4 147.8H193v25.4a1.9 1.9 0 0 1-2.1 2.1H69.6a1.9 1.9 0 0 1-2.1-2.1v-25.4H39.8a2.3 2.3 0 0 1-2.1-2.1 2.2 2.2 0 0 1 2.1-2.1h15.7v-13.7a2 2 0 0 1 2.1-2.1h8.2A66.7 66.7 0 0 1 130 76.4a.7.7 0 0 1 .9 0c31.1.2 56.9 22.1 63.8 51.1h8.2a2 2 0 0 1 2.1 2.1v13.7h15.7a2.2 2.2 0 0 1 2.1 2.1 2.3 2.3 0 0 1-2.1 2.1z"/><path d="M59.7 131.7h141v11.56h-141zm86.3 15.8h42.8v23.33H146z"/></svg>