<svg xmlns="http://www.w3.org/2000/svg" width="256" height="256" viewBox="0 0 256 256"><path d="M97.1 150.1H83.3l-18.5 21.8 2.9 4.2 35.5-18.7-6.1-7.3zm-25.6-15.2h114.8v10.93H71.5zm100.3-4.2a50.1 50.1 0 0 0 2.6-16 45.5 45.5 0 0 0-90.9 0c0 5.5.4 11.2 2.5 16zm-85.6 40.6h28.5l-8.6-10.5-19.9 10.5zm72.2-21.2l-6.3 7.3 35.7 18.7 2.9-4-18.4-22h-13.9z"/><path d="M127.8.2l-110.7 64v128l110.7 64 110.6-64v-128zm67.1 173l-4.8 6.9a2.2 2.2 0 0 1-2.7.7l-10.1-5.3H78l-10.1 5.3a2.2 2.2 0 0 1-2.7-.7l-4.8-6.9a2.2 2.2 0 0 1 .2-2.5L78 150.1h-8.6a2.1 2.1 0 0 1-2.1-2.1v-15.2a2.1 2.1 0 0 1 2.1-2.1h12.2a57.3 57.3 0 0 1-2.3-16A49.8 49.8 0 0 1 129 65.1c27.1 0 49.6 22.5 49.6 49.6a50.9 50.9 0 0 1-2.4 16h12.2a2 2 0 0 1 2.1 2.1V148a2 2 0 0 1-2.1 2.1h-10.7l17.2 20.6a2.1 2.1 0 0 1 0 2.5z"/><path d="M140.8 171.3h28.5l-19.9-10.5-8.6 10.5zm-38.2-21.2l17.6 21.2h15.1l17.6-21.2h-50.3z"/></svg>