<svg xmlns="http://www.w3.org/2000/svg" width="256" height="256" viewBox="0 0 256 256"><path d="M95.9 158h21v13.24h-21zm25.1 0h13.4v13.24H121zm17.7 0h21v13.24h-21zm-10.9-87.6c-24.6 0-45.2 14.9-46.2 42h92.3c-1-27.1-21.6-42-46.1-42zM78.2 158h13.4v13.24H78.2zm-12.6-4.2h124.3v-37.2H65.6zm61.1-14.3h51.2a2.2 2.2 0 0 1 0 4.3h-51.2a2.2 2.2 0 0 1 0-4.3z"/><path d="M127.8.2l-110.7 64v128l110.7 64 110.6-64v-128zm66.3 155.7a2 2 0 0 1-2.1 2.1h-10.5v13.3H192a2.3 2.3 0 0 1 2.1 2.1 2.3 2.3 0 0 1-2.1 2.1H63.5a2.3 2.3 0 0 1-2.1-2.1 2.3 2.3 0 0 1 2.1-2.1H74V158H63.5a2 2 0 0 1-2.1-2.1v-41.4a2.1 2.1 0 0 1 2.1-2.1h13.9c1-29.8 23.3-46.2 50.4-46.2s49.3 16.4 50.3 46.2H192a2.1 2.1 0 0 1 2.1 2.1z"/><path d="M163.9 158h13.4v13.24h-13.4z"/></svg>